<svg xmlns="http://www.w3.org/2000/svg" width="32" height="32" viewBox="0 0 32 32">
  <g transform="matrix(1.25,0,0,-1.25,-163.60787,255.21687)">
    <g transform="translate(145.5572,186.05)">
      <path
         d="m 0,0 c 0,-2.981 -2.478,-5.344 -5.452,-5.344 -2.989,0 -5.418,2.404 -5.453,5.385 0,0.823 0.665,1.487 1.488,1.487 0.82,0 1.487,-0.664 1.487,-1.487 0,-1.672 1.208,-2.492 2.478,-2.492 1.269,0 2.463,0.904 2.463,2.451 l 0.009,4.353 c 0,0.82 0.664,1.485 1.487,1.485 0.82,0 1.487,-0.665 1.487,-1.485 z"
         fill="#3491bf" />
    </g>
    <g transform="translate(153.4526,191.9064)">
      <path
         d="m 0,0 v -0.018 c 0,-0.821 -0.667,-1.486 -1.487,-1.486 -0.821,0 -1.487,0.665 -1.487,1.486 V 0 c 0,3.549 -2.878,6.425 -6.427,6.425 -3.549,0 -6.425,-2.876 -6.425,-6.425 v -0.018 c 0,-0.821 -0.666,-1.486 -1.487,-1.486 -0.822,0 -1.487,0.665 -1.487,1.486 V 0 c 0,5.192 4.207,9.401 9.399,9.401 C -4.207,9.401 0,5.192 0,0"
         fill="#3491bf" />
    </g>
  </g>
</svg>